<svg xmlns="http://www.w3.org/2000/svg" width="89.243" height="89.243" viewBox="0 0 89.243 89.243">
    <g id="voicedata" transform="translate(-267.322 194)">
        <g id="calendar" transform="translate(267.322 -194)">
            <g id="Group_4" data-name="Group 4" transform="translate(15.986 37.588)">
                <g id="Group_3" data-name="Group 3" transform="translate(0 0)">
                    <rect id="Rectangle_1" data-name="Rectangle 1" width="4" height="3"
                        transform="translate(0.258 -0.023)" fill="#616e7d" />
                </g>
            </g>
            <g id="Group_6" data-name="Group 6" transform="translate(24.807 37.588)">
                <g id="Group_5" data-name="Group 5" transform="translate(0 0)">
                    <rect id="Rectangle_2" data-name="Rectangle 2" width="3" height="3"
                        transform="translate(0.436 -0.023)" fill="#616e7d" />
                </g>
            </g>
            <g id="Group_8" data-name="Group 8" transform="translate(34.012 37.588)">
                <g id="Group_7" data-name="Group 7" transform="translate(0 0)">
                    <rect id="Rectangle_3" data-name="Rectangle 3" width="3" height="3"
                        transform="translate(0.231 -0.023)" fill="#616e7d" />
                </g>
            </g>
            <g id="Group_10" data-name="Group 10" transform="translate(42.834 37.588)">
                <g id="Group_9" data-name="Group 9" transform="translate(0 0)">
                    <rect id="Rectangle_4" data-name="Rectangle 4" width="3" height="3"
                        transform="translate(0.409 -0.023)" fill="#616e7d" />
                </g>
            </g>
            <g id="Group_12" data-name="Group 12" transform="translate(51.656 37.588)">
                <g id="Group_11" data-name="Group 11" transform="translate(0 0)">
                    <rect id="Rectangle_5" data-name="Rectangle 5" width="4" height="3"
                        transform="translate(-0.412 -0.023)" fill="#616e7d" />
                </g>
            </g>
            <g id="Group_14" data-name="Group 14" transform="translate(60.861 37.588)">
                <g id="Group_13" data-name="Group 13" transform="translate(0 0)">
                    <rect id="Rectangle_6" data-name="Rectangle 6" width="3" height="3"
                        transform="translate(0.383 -0.023)" fill="#616e7d" />
                </g>
            </g>
            <g id="Group_16" data-name="Group 16" transform="translate(69.682 37.588)">
                <g id="Group_15" data-name="Group 15" transform="translate(0 0)">
                    <rect id="Rectangle_7" data-name="Rectangle 7" width="4" height="3"
                        transform="translate(-0.439 -0.023)" fill="#616e7d" />
                </g>
            </g>
            <g id="Group_18" data-name="Group 18" transform="translate(15.986 46.409)">
                <g id="Group_17" data-name="Group 17" transform="translate(0 0)">
                    <rect id="Rectangle_8" data-name="Rectangle 8" width="4" height="3"
                        transform="translate(0.258 0.156)" fill="#616e7d" />
                </g>
            </g>
            <g id="Group_20" data-name="Group 20" transform="translate(24.807 46.409)">
                <g id="Group_19" data-name="Group 19" transform="translate(0 0)">
                    <rect id="Rectangle_9" data-name="Rectangle 9" width="3" height="3"
                        transform="translate(0.436 0.156)" fill="#616e7d" />
                </g>
            </g>
            <g id="Group_22" data-name="Group 22" transform="translate(34.012 46.409)">
                <g id="Group_21" data-name="Group 21" transform="translate(0 0)">
                    <rect id="Rectangle_10" data-name="Rectangle 10" width="3" height="3"
                        transform="translate(0.231 0.156)" fill="#616e7d" />
                </g>
            </g>
            <g id="Group_24" data-name="Group 24" transform="translate(42.834 46.409)">
                <g id="Group_23" data-name="Group 23" transform="translate(0 0)">
                    <rect id="Rectangle_11" data-name="Rectangle 11" width="3" height="3"
                        transform="translate(0.409 0.156)" fill="#616e7d" />
                </g>
            </g>
            <g id="Group_26" data-name="Group 26" transform="translate(15.986 55.231)">
                <g id="Group_25" data-name="Group 25" transform="translate(0 0)">
                    <rect id="Rectangle_12" data-name="Rectangle 12" width="4" height="4"
                        transform="translate(0.258 0.334)" fill="#616e7d" />
                </g>
            </g>
            <g id="Group_28" data-name="Group 28" transform="translate(24.807 55.231)">
                <g id="Group_27" data-name="Group 27" transform="translate(0 0)">
                    <rect id="Rectangle_13" data-name="Rectangle 13" width="3" height="4"
                        transform="translate(0.436 0.334)" fill="#616e7d" />
                </g>
            </g>
            <g id="Group_30" data-name="Group 30" transform="translate(34.012 55.231)">
                <g id="Group_29" data-name="Group 29" transform="translate(0 0)">
                    <rect id="Rectangle_14" data-name="Rectangle 14" width="3" height="4"
                        transform="translate(0.231 0.334)" fill="#616e7d" />
                </g>
            </g>
            <g id="Group_32" data-name="Group 32" transform="translate(42.834 55.231)">
                <g id="Group_31" data-name="Group 31" transform="translate(0 0)">
                    <rect id="Rectangle_15" data-name="Rectangle 15" width="3" height="4"
                        transform="translate(0.409 0.334)" fill="#616e7d" />
                </g>
            </g>
            <g id="Group_34" data-name="Group 34" transform="translate(15.986 64.436)">
                <g id="Group_33" data-name="Group 33" transform="translate(0 0)">
                    <rect id="Rectangle_16" data-name="Rectangle 16" width="4" height="3"
                        transform="translate(0.258 0.129)" fill="#616e7d" />
                </g>
            </g>
            <g id="Group_36" data-name="Group 36" transform="translate(24.807 64.436)">
                <g id="Group_35" data-name="Group 35" transform="translate(0 0)">
                    <rect id="Rectangle_17" data-name="Rectangle 17" width="3" height="3"
                        transform="translate(0.436 0.129)" fill="#616e7d" />
                </g>
            </g>
            <g id="Group_38" data-name="Group 38" transform="translate(34.012 64.436)">
                <g id="Group_37" data-name="Group 37" transform="translate(0 0)">
                    <rect id="Rectangle_18" data-name="Rectangle 18" width="3" height="3"
                        transform="translate(0.231 0.129)" fill="#616e7d" />
                </g>
            </g>
            <g id="Group_40" data-name="Group 40" transform="translate(15.986 73.258)">
                <g id="Group_39" data-name="Group 39" transform="translate(0 0)">
                    <rect id="Rectangle_19" data-name="Rectangle 19" width="4" height="3"
                        transform="translate(0.258 0.307)" fill="#616e7d" />
                </g>
            </g>
            <g id="Group_42" data-name="Group 42" transform="translate(24.807 73.258)">
                <g id="Group_41" data-name="Group 41" transform="translate(0 0)">
                    <rect id="Rectangle_20" data-name="Rectangle 20" width="3" height="3"
                        transform="translate(0.436 0.307)" fill="#616e7d" />
                </g>
            </g>
            <g id="Group_44" data-name="Group 44" transform="translate(34.012 73.258)">
                <g id="Group_43" data-name="Group 43" transform="translate(0 0)">
                    <rect id="Rectangle_21" data-name="Rectangle 21" width="3" height="3"
                        transform="translate(0.231 0.307)" fill="#616e7d" />
                </g>
            </g>
            <g id="Group_46" data-name="Group 46" transform="translate(42.834 64.436)">
                <g id="Group_45" data-name="Group 45" transform="translate(0 0)">
                    <rect id="Rectangle_22" data-name="Rectangle 22" width="3" height="3"
                        transform="translate(0.409 0.129)" fill="#616e7d" />
                </g>
            </g>
            <g id="Group_48" data-name="Group 48">
                <g id="Group_47" data-name="Group 47">
                    <path id="Path_2" data-name="Path 2"
                        d="M74.964,7.139V0H64.255V7.139H24.988V0H14.279V7.139H0v82.1H73.918l.828-.828L88.41,74.752l.834-.834V7.139Zm-7.139,0V3.57h3.57V14.279h-3.57Zm-49.976,0V3.57h3.57V14.279h-3.57ZM74.964,83.15V74.964H83.15ZM85.674,71.395H71.395V85.674H3.57v-58.9h82.1Zm0-48.191H3.57V10.709H14.279v7.139H24.988V10.709H64.255v7.139H74.964V10.709H85.674Z"
                        fill="#616e7d" />
                </g>
            </g>
        </g>
        <g id="microphone_1_" data-name="microphone (1)" transform="translate(318.784 -149.508)">
            <g id="Group_52" data-name="Group 52" transform="translate(4.564)">
                <g id="Group_51" data-name="Group 51">
                    <path id="Path_4" data-name="Path 4"
                        d="M118.847,0A7,7,0,0,0,112,7.118V17.5a6.852,6.852,0,1,0,13.693,0V7.118A7,7,0,0,0,118.847,0Zm0,23.094a5.426,5.426,0,0,1-5.27-4.836h10.54A5.424,5.424,0,0,1,118.847,23.094Zm5.325-6.358h-10.65V7.118a5.332,5.332,0,1,1,10.65,0Z"
                        transform="translate(-112)" fill="#aad4c8" />
                </g>
            </g>
            <g id="Group_54" data-name="Group 54" transform="translate(0 13.693)">
                <g id="Group_53" data-name="Group 53">
                    <path id="Path_5" data-name="Path 5"
                        d="M86.062,144a.761.761,0,0,0-.761.761V147.8a9.89,9.89,0,0,1-19.779,0v-3.043a.761.761,0,0,0-1.521,0V147.8a11.416,11.416,0,0,0,10.65,11.372v4.6h-3.8a.761.761,0,0,0,0,1.521h9.129a.761.761,0,1,0,0-1.521h-3.8v-4.6A11.416,11.416,0,0,0,86.822,147.8v-3.043A.761.761,0,0,0,86.062,144Z"
                        transform="translate(-64 -144)" fill="#aad4c8" />
                </g>
            </g>
        </g>
    </g>
</svg>
